<svg width="24" height="25" viewBox="0 0 24 25" fill="none" xmlns="http://www.w3.org/2000/svg">
  <g clip-path="url(#clip0_2977_4512)">
    <path fill-rule="evenodd" clip-rule="evenodd" d="M10.546 3.06019C10.9171 3.47213 11.4455 3.70733 12 3.70733C12.5545 3.70733 13.0829 3.47213 13.454 3.06019L14.4 2.02219C14.9556 1.40733 15.8379 1.20855 16.6035 1.52577C17.369 1.84299 17.8521 2.60759 17.81 3.43519L17.739 4.83519C17.7112 5.38746 17.9183 5.92572 18.309 6.31702C18.6997 6.70831 19.2377 6.91615 19.79 6.88919L21.19 6.81819C22.017 6.77741 22.7804 7.26104 23.0968 8.02625C23.4132 8.79146 23.2143 9.67297 22.6 10.2282L21.558 11.1682C21.1466 11.5398 20.9118 12.0683 20.9118 12.6227C20.9118 13.1771 21.1466 13.7056 21.558 14.0772L22.6 15.0172C23.2149 15.5727 23.4136 16.4551 23.0964 17.2206C22.7792 17.9862 22.0146 18.4693 21.187 18.4272L19.787 18.3562C19.2335 18.3277 18.6938 18.5352 18.3019 18.9271C17.91 19.319 17.7025 19.8587 17.731 20.4122L17.802 21.8122C17.8387 22.6354 17.3563 23.3936 16.595 23.7091C15.8337 24.0246 14.9564 23.83 14.4 23.2222L13.459 22.1812C13.0876 21.7698 12.5593 21.535 12.005 21.535C11.4507 21.535 10.9224 21.7698 10.551 22.1812L9.606 23.2222C9.0504 23.8329 8.17154 24.0297 7.40854 23.7143C6.64554 23.3989 6.1622 22.6389 6.2 21.8142L6.272 20.4142C6.30047 19.8607 6.09302 19.321 5.7011 18.9291C5.30918 18.5372 4.76952 18.3297 4.216 18.3582L2.816 18.4292C1.98873 18.4724 1.22381 17.9903 0.905883 17.2253C0.587955 16.4603 0.785828 15.5781 1.4 15.0222L2.441 14.0822C2.85242 13.7106 3.08722 13.1821 3.08722 12.6277C3.08722 12.0733 2.85242 11.5448 2.441 11.1732L1.4 10.2282C0.787888 9.67294 0.590308 8.79315 0.906222 8.02948C1.22214 7.26582 1.98351 6.78273 2.809 6.82219L4.209 6.89319C4.76359 6.92235 5.30448 6.71462 5.69699 6.32173C6.0895 5.92884 6.2967 5.38775 6.267 4.83319L6.2 3.43219C6.16129 2.60706 6.64431 1.84631 7.40754 1.53035C8.17076 1.21439 9.05017 1.41113 9.606 2.02219L10.546 3.06019Z" stroke="currentColor" stroke-width="1.5" stroke-linecap="round" stroke-linejoin="round"/>
    <path fill-rule="evenodd" clip-rule="evenodd" d="M12 17.123C14.4853 17.123 16.5 15.1083 16.5 12.623C16.5 10.1378 14.4853 8.12305 12 8.12305C9.51472 8.12305 7.5 10.1378 7.5 12.623C7.5 15.1083 9.51472 17.123 12 17.123Z" stroke="currentColor" stroke-width="1.5" stroke-linecap="round" stroke-linejoin="round"/>
  </g>
  <defs>
    <clipPath id="clip0_2977_4512">
      <rect y="0.622559" width="24" height="24" rx="7" fill="white"/>
    </clipPath>
  </defs>
</svg>

