<svg width="22" height="22" viewBox="0 0 22 22" fill="none" xmlns="http://www.w3.org/2000/svg">
<path fill-rule="evenodd" clip-rule="evenodd" d="M19.125 20.375H2.875C2.18464 20.375 1.625 19.8154 1.625 19.125V7.03583C1.62514 6.37285 1.88863 5.73707 2.3575 5.26833L5.2675 2.3575C5.73644 1.88842 6.37256 1.62492 7.03583 1.625H19.125C19.8154 1.625 20.375 2.18464 20.375 2.875V19.125C20.375 19.8154 19.8154 20.375 19.125 20.375Z" stroke="#45434F" stroke-width="1.5" stroke-linecap="round" stroke-linejoin="round"/>
<path d="M7.875 1.625V6.625C7.875 7.31536 8.43464 7.875 9.125 7.875H15.375C16.0654 7.875 16.625 7.31536 16.625 6.625V1.625" stroke="#45434F" stroke-width="1.5" stroke-linecap="round" stroke-linejoin="round"/>
<path d="M14.125 4.125V5.375" stroke="#45434F" stroke-width="1.5" stroke-linecap="round" stroke-linejoin="round"/>
<path fill-rule="evenodd" clip-rule="evenodd" d="M15.375 11.625H6.625C5.93464 11.625 5.375 12.1846 5.375 12.875V20.375H16.625V12.875C16.625 12.1846 16.0654 11.625 15.375 11.625Z" stroke="#45434F" stroke-width="1.5" stroke-linecap="round" stroke-linejoin="round"/>
<path d="M7.875 14.125H11.625" stroke="#45434F" stroke-width="1.5" stroke-linecap="round" stroke-linejoin="round"/>
<path d="M7.875 16.625H14.125" stroke="#45434F" stroke-width="1.5" stroke-linecap="round" stroke-linejoin="round"/>
</svg>
