<svg width="26" height="27" viewBox="0 0 26 27" fill="none" xmlns="http://www.w3.org/2000/svg">
<path d="M3.57227 20.8258V20.8258C3.75203 17.1338 7.09616 14.2723 11.0524 14.4253H14.9496C18.9058 14.2723 22.2499 17.1338 22.4297 20.8258V20.8258" stroke="currentColor" stroke-width="1.5" stroke-linecap="round" stroke-linejoin="round"/>
<path d="M13 8.021V20.8221" stroke="currentColor" stroke-width="1.5" stroke-linecap="round" stroke-linejoin="round"/>
<path fill-rule="evenodd" clip-rule="evenodd" d="M13.001 8.02311C14.8945 8.02311 16.4295 6.59029 16.4295 4.82283C16.4295 3.05537 14.8945 1.62256 13.001 1.62256C11.1074 1.62256 9.57239 3.05537 9.57239 4.82283C9.57239 6.59029 11.1074 8.02311 13.001 8.02311Z" stroke="currentColor" stroke-width="1.5" stroke-linecap="round" stroke-linejoin="round"/>
<path fill-rule="evenodd" clip-rule="evenodd" d="M3.57143 25.6227C4.9916 25.6227 6.14287 24.5481 6.14287 23.2225C6.14287 21.8969 4.9916 20.8223 3.57143 20.8223C2.15127 20.8223 1 21.8969 1 23.2225C1 24.5481 2.15127 25.6227 3.57143 25.6227Z" stroke="currentColor" stroke-width="1.5" stroke-linecap="round" stroke-linejoin="round"/>
<path fill-rule="evenodd" clip-rule="evenodd" d="M12.9993 25.6227C14.4195 25.6227 15.5707 24.5481 15.5707 23.2225C15.5707 21.8969 14.4195 20.8223 12.9993 20.8223C11.5791 20.8223 10.4279 21.8969 10.4279 23.2225C10.4279 24.5481 11.5791 25.6227 12.9993 25.6227Z" stroke="currentColor" stroke-width="1.5" stroke-linecap="round" stroke-linejoin="round"/>
<path fill-rule="evenodd" clip-rule="evenodd" d="M22.4285 25.6227C23.8487 25.6227 24.9999 24.5481 24.9999 23.2225C24.9999 21.8969 23.8487 20.8223 22.4285 20.8223C21.0083 20.8223 19.8571 21.8969 19.8571 23.2225C19.8571 24.5481 21.0083 25.6227 22.4285 25.6227Z" stroke="currentColor" stroke-width="1.5" stroke-linecap="round" stroke-linejoin="round"/>
</svg>
