<svg width="48" height="48" viewBox="0 0 48 48" fill="none" xmlns="http://www.w3.org/2000/svg">
<path fill-rule="evenodd" clip-rule="evenodd" d="M11.9325 18.6268H37.9776V16.6831H9.97559C9.97559 17.6388 10.7208 18.6268 11.9325 18.6268Z" fill="#7B46D1"/>
<path fill-rule="evenodd" clip-rule="evenodd" d="M24.9678 38.9604H26.902V20.561H24.9678V38.9604Z" fill="#7B46D1"/>
<path fill-rule="evenodd" clip-rule="evenodd" d="M21.1006 37.0282C21.1006 38.2361 22.1151 38.9623 23.0348 38.9623V20.561H21.1006V37.0282Z" fill="#7B46D1"/>
<path fill-rule="evenodd" clip-rule="evenodd" d="M39.935 20.5613H28.8343V40.8949H23.0375C20.9743 40.8949 19.1672 39.2565 19.1672 37.0284V20.5613H11.9311C9.73331 20.5613 8.0646 18.7788 8.0646 16.6948V10.8942H36.0685C38.1961 10.8942 39.935 12.6331 39.935 14.7607V20.5613ZM24.0009 0C10.7461 0 0 10.7442 0 23.9991C0 37.2558 10.7461 48 24.0009 48C37.2539 48 48 37.2558 48 23.9991C48 10.7442 37.2539 0 24.0009 0Z" fill="#7B46D1"/>
<path fill-rule="evenodd" clip-rule="evenodd" d="M36.0687 12.8267H9.99512V14.7608H37.9972C37.9972 13.7236 37.1685 12.8267 36.0687 12.8267Z" fill="#7B46D1"/>
</svg>