<svg width="26" height="28" viewBox="0 0 26 28" fill="none" xmlns="http://www.w3.org/2000/svg">
  <path d="M12.7 1.47949C11.0292 1.47949 9.42673 2.11163 8.24525 3.23685C7.06377 4.36207 6.40002 5.88819 6.40002 7.47949C6.40002 9.07079 7.06377 10.5969 8.24525 11.7221C9.42673 12.8474 11.0292 13.4795 12.7 13.4795C14.3709 13.4795 15.9733 12.8474 17.1548 11.7221C18.3363 10.5969 19 9.07079 19 7.47949C19 5.88819 18.3363 4.36207 17.1548 3.23685C15.9733 2.11163 14.3709 1.47949 12.7 1.47949V1.47949Z" stroke="currentColor" stroke-width="1.5" stroke-linecap="round" stroke-linejoin="round"/>
  <path d="M1 27.1936C1 21.0336 6.232 16.0508 12.7 16.0508C19.156 16.0508 24.4 21.0336 24.4 27.1936" stroke="currentColor" stroke-width="1.5" stroke-linecap="round" stroke-linejoin="round"/>
</svg>
