<svg width="25" height="24" viewBox="0 0 25 24" fill="none" xmlns="http://www.w3.org/2000/svg">
<path d="M5.79671 3.90625C5.54081 3.90625 5.27321 3.99226 5.07791 4.18726C4.68741 4.57826 4.68741 5.23424 5.07791 5.62524L11.3592 11.9062L5.07791 18.1873C4.68741 18.5783 4.68741 19.2342 5.07791 19.6252C5.46851 20.0152 6.12491 20.0152 6.51551 19.6252L12.7967 13.3443L19.0779 19.6252C19.4685 20.0152 20.1249 20.0152 20.5155 19.6252C20.906 19.2342 20.906 18.5783 20.5155 18.1873L14.2342 11.9062L20.5155 5.62524C20.906 5.23424 20.906 4.57826 20.5155 4.18726C20.3202 3.99226 20.0525 3.90625 19.7967 3.90625C19.5408 3.90625 19.2733 3.99226 19.0779 4.18726L12.7967 10.4682L6.51551 4.18726C6.32021 3.99226 6.05261 3.90625 5.79671 3.90625Z" fill="black"/>
</svg>
